{"title":"Rush 2013 CAM XViD UNiQUE ","uid":8963647,"size":1497165844,"categoryP":"video","categoryS":"movies","magnet":"?xt=urn:btih:0dae48e3313cac720d9aeaf4e2d7fa6104a20460&amp;dn=Rush+2013+CAM+XViD+UNiQUE+&amp;tr=udp%3A%2F%2Ftracker.openbittorrent.com%3A80&amp;tr=udp%3A%2F%2Fopen.demonii.com%3A1337&amp;tr=udp%3A%2F%2Ftracker.coppersurfer.tk%3A6969&amp;tr=udp%3A%2F%2Fexodus.desync.com%3A6969","seeders":15,"leechers":1,"uploader":"srkfan","files":4,"time":1380163835,"description":" &lt;a href=&quot;http://img844.imageshack.us/img844/4404/y281.jpg&quot; rel=&quot;nofollow&quot; target=&quot;_NEW&quot;&gt;http://img844.imageshack.us/img844/4404/y281.jpg&lt;/a&gt;\n\nFormat                                   : AVI\nFormat/Info                              : Audio Video Interleave\nFile size                                : 1.38 GiB\nDuration                                 : 1h 52mn\nOverall bit rate                         : 1 760 Kbps\nWriting application                      : VirtualDubMod 1.5.10.2 (build 2540/release)\nWriting library                          : VirtualDubMod build 2540/release\n\nVideo\nID                                       : 0\nFormat                                   : MPEG-4 Visual\nFormat profile                           : Advanced Simple@L5\nFormat settings, BVOP                    : 2\nFormat settings, QPel                    : No\nFormat settings, GMC                     : No warppoints\nFormat settings, Matrix                  : Default (H.263)\nMuxing mode                              : Packed bitstream\nCodec ID                                 : XVID\nCodec ID/Hint                            : XviD\nDuration                                 : 1h 52mn\nBit rate                                 : 1 620 Kbps\nWidth                                    : 720 pixels\nHeight                                   : 304 pixels\nDisplay aspect ratio                     : 2.35:1\nFrame rate                               : 29.970 fps\nColor space                              : YUV\nChroma subsampling                       : 4:2:0\nBit depth                                : 8 bits\nScan type                                : Progressive\nCompression mode                         : Lossy\nBits/(Pixel*Frame)                       : 0.247\nStream size                              : 1.27 GiB (92%)\nWriting library                          : XviD 64\n\nAudio\nID                                       : 1\nFormat                                   : MPEG Audio\nFormat version                           : Version 1\nFormat profile                           : Layer 3\nCodec ID                                 : 55\nCodec ID/Hint                            : MP3\nDuration                                 : 1h 52mn\nBit rate mode                            : Constant\nBit rate                                 : 128 Kbps\nChannel(s)                               : 2 channels\nSampling rate                            : 44.1 KHz\nCompression mode                         : Lossy\nStream size                              : 103 MiB (7%)\nAlignment                                : Split accross interleaves\nInterleave, duration                     : 33 ms (1.00 video frame)\nInterleave, preload duration             : 500 ms\nWriting library                          : LAME3.98\n\n &lt;a href=&quot;\nhttp://img850.imageshack.us/img850/6896/bo9a.png&quot; rel=&quot;nofollow&quot; target=&quot;_NEW&quot;&gt;\nhttp://img850.imageshack.us/img850/6896/bo9a.png&lt;/a&gt; &lt;a href=&quot;\nhttp://img842.imageshack.us/img842/8031/5rhs.png&quot; rel=&quot;nofollow&quot; target=&quot;_NEW&quot;&gt;\nhttp://img842.imageshack.us/img842/8031/5rhs.png&lt;/a&gt; &lt;a href=&quot;\nhttp://img11.imageshack.us/img11/5369/ekq2.png&quot; rel=&quot;nofollow&quot; target=&quot;_NEW&quot;&gt;\nhttp://img11.imageshack.us/img11/5369/ekq2.png&lt;/a&gt; &lt;a href=&quot;\nhttp://img405.imageshack.us/img405/7740/f1sh.png&quot; rel=&quot;nofollow&quot; target=&quot;_NEW&quot;&gt;\nhttp://img405.imageshack.us/img405/7740/f1sh.png&lt;/a&gt;\n &lt;a href=&quot;\nhttp://www.imdb.com/title/tt1979320/&quot; rel=&quot;nofollow&quot; target=&quot;_NEW&quot;&gt;\nhttp://www.imdb.com/title/tt1979320/&lt;/a&gt;\n\n\nStoryline\nSet against the sexy, glamorous golden age of Formula 1 racing in the 1970s, the film is based on the true story of a great sporting rivalry between handsome English playboy James Hunt (Hemsworth), and his methodical, brilliant opponent, Austrian driver Niki Lauda (Bruhl). The story follows their distinctly different personal styles on and off the track, their loves and the astonishing 1976 season in which both drivers were willing to risk everything to become world champion in a sport with no margin for error: if you make a mistake, you die.\n\n\nSource Used  Rush.2013.iTALiAN.MD.TELESYNC.XviD-THK / KiNGofJeFFs  - Thanks\n\n\nGreets now going out to !\n\n\nJUSTiCE,KiSSMYACE and the rest can just KMA     \n\n\nTell you work done in morning cant be bothered at minute\n","torrent":{"xt":"urn:btih:0dae48e3313cac720d9aeaf4e2d7fa6104a20460","amp;dn":"Rush+2013+CAM+XViD+UNiQUE+","amp;tr":["udp%3A%2F%2Ftracker.openbittorrent.com%3A80","udp%3A%2F%2Fopen.demonii.com%3A1337","udp%3A%2F%2Ftracker.coppersurfer.tk%3A6969","udp%3A%2F%2Fexodus.desync.com%3A6969"],"infoHash":"0dae48e3313cac720d9aeaf4e2d7fa6104a20460","infoHashBuffer":{"type":"Buffer","data":[13,174,72,227,49,60,172,114,13,154,234,244,226,215,250,97,4,162,4,96]},"announce":[],"urlList":[]}}